<svg width="30px" height="30px" viewBox="0 0 30 30" version="1.1" xmlns="http://www.w3.org/2000/svg" xmlns:xlink="http://www.w3.org/1999/xlink">
    <defs>
        <linearGradient x1="50%" y1="100%" x2="50%" y2="2.98023324e-06%" id="linearGradient-2u4a0x7co7-1">
            <stop stop-color="#2E66F8" offset="0%"></stop>
            <stop stop-color="#124ADB" offset="100%"></stop>
        </linearGradient>
    </defs>
    <g id="Onepager" stroke="none" stroke-width="1" fill="none" fill-rule="evenodd">
        <g id="z" transform="translate(-562.000000, -606.000000)">
            <g id="Group-14-Copy-3" transform="translate(557.000000, 601.000000)">
                <g id="icn-coinbase-wallet" transform="translate(5.000000, 5.000000)">
                    <path d="M15,0 C6.71573,0 0,6.71573089 0,15 C0,23.2843009 6.71573,30 15,30 C23.2843,30 30,23.2843009 30,15 C30,6.71573089 23.2843,0 15,0 Z" id="Path" fill="url(#linearGradient-2u4a0x7co7-1)"></path>
                    <path d="M6.16229,15.0000009 C6.16229,10.1191009 10.1191,6.16232089 15,6.16232089 C19.8809,6.16232089 23.8377,10.1191009 23.8377,15.0000009 C23.8377,19.8809009 19.8809,23.8377009 15,23.8377009 C10.1191,23.8377009 6.16229,19.8809009 6.16229,15.0000009 Z M12.7415,17.8477009 C12.4161,17.8477009 12.1523,17.5839009 12.1523,17.2585009 L12.1523,12.7415009 C12.1523,12.4161009 12.4161,12.1523009 12.7415,12.1523009 L17.2585,12.1523009 C17.5839,12.1523009 17.8477,12.4161009 17.8477,12.7415009 L17.8477,17.2585009 C17.8477,17.5839009 17.5839,17.8477009 17.2585,17.8477009 L12.7415,17.8477009 Z" id="Shape" fill="#FFFFFF"></path>
                </g>
            </g>
        </g>
    </g>
</svg>