<?xml version="1.0" encoding="UTF-8"?>
<svg width="190px" height="19px" viewBox="0 0 190 19" version="1.1" xmlns="http://www.w3.org/2000/svg" xmlns:xlink="http://www.w3.org/1999/xlink">
    <title>Group@2x</title>
    <g id="Onepager" stroke="none" stroke-width="1" fill="none" fill-rule="evenodd">
        <g id="homepage" transform="translate(-99.000000, -41.000000)" fill="#FFFFFF" fill-rule="nonzero">
            <g id="Group" transform="translate(99.602679, 41.532232)">
                <path d="M3.16077,17.9414526 L3.16077,10.2486789 L11.0004751,10.2486789 L11.0004751,7.66771579 L3.16077,7.66771579 L3.16077,2.8566 L11.4982342,2.8566 L11.4982342,0.275636842 L0,0.275636842 L0,17.9414526 L3.16077,17.9414526 Z M16.9238079,17.9414526 L16.9238079,0.275636842 L13.8128138,0.275636842 L13.8128138,17.9414526 L16.9238079,17.9414526 Z M25.6843673,18.1419158 C26.9287649,18.1419158 28.0196868,17.8829842 28.9571331,17.3651211 C29.8945793,16.8472579 30.6163299,16.1038737 31.122385,15.1349684 C31.62844,14.1660632 31.8814675,13.0384579 31.8814675,11.7521526 C31.8814675,10.4658474 31.62844,9.34241842 31.122385,8.38186579 C30.6163299,7.42131316 29.8945793,6.68210526 28.9571331,6.16424211 C28.0196868,5.64637895 26.9287649,5.38744737 25.6843673,5.38744737 C24.4399696,5.38744737 23.3490477,5.64637895 22.4116015,6.16424211 C21.4741553,6.68210526 20.7482566,7.42131316 20.2339056,8.38186579 C19.7195546,9.34241842 19.4623791,10.4658474 19.4623791,11.7521526 C19.4623791,13.0384579 19.7195546,14.1660632 20.2339056,15.1349684 C20.7482566,16.1038737 21.4741553,16.8472579 22.4116015,17.3651211 C23.3490477,17.8829842 24.4399696,18.1419158 25.6843673,18.1419158 Z M25.6594793,15.7113 C24.6639612,15.7113 23.9007307,15.3771947 23.3697877,14.7089842 C22.8388447,14.0407737 22.5733732,13.0551632 22.5733732,11.7521526 C22.5733732,10.4658474 22.8429927,9.48441316 23.3822316,8.80785 C23.9214706,8.13128684 24.6888492,7.79300526 25.6843673,7.79300526 C26.6798854,7.79300526 27.4431159,8.13128684 27.9740589,8.80785 C28.5050019,9.48441316 28.7704734,10.4658474 28.7704734,11.7521526 C28.7704734,13.0551632 28.5050019,14.0407737 27.9740589,14.7089842 C27.4431159,15.3771947 26.6715894,15.7113 25.6594793,15.7113 Z M37.5559208,17.9414526 L37.5559208,11.3261684 C37.5559208,9.43847368 38.5846228,8.38604211 40.6420269,8.16887368 L40.6420269,8.16887368 L42.4588475,7.99346842 L42.2597438,5.36238947 L41.3140016,5.43756316 C39.3395574,5.57120526 38.0370878,6.37305789 37.406593,7.84312105 L37.406593,7.84312105 L37.406593,5.68814211 L34.4449267,5.68814211 L34.4449267,17.9414526 L37.5559208,17.9414526 Z M49.5021381,18.1419158 C50.3649205,18.1419158 51.2235548,17.9999211 52.0780412,17.7159316 C52.9325276,17.4319421 53.6418342,17.0560737 54.2059612,16.5883263 L54.2059612,16.5883263 L53.3099949,14.4333474 C52.198333,15.3020211 50.9705273,15.7363579 49.6265779,15.7363579 C48.5480999,15.7363579 47.7185015,15.4607211 47.1377826,14.9094474 C46.5570637,14.3581737 46.2169283,13.5145579 46.1173765,12.3786 L46.1173765,12.3786 L54.4050648,12.3786 L54.4050648,11.5015737 C54.4050648,9.59717368 53.9197497,8.10205263 52.9491196,7.01621053 C51.9784894,5.93036842 50.6552799,5.38744737 48.9794911,5.38744737 C47.8346453,5.38744737 46.8100912,5.65473158 45.9058289,6.1893 C45.0015666,6.72386842 44.300556,7.47560526 43.8027969,8.44451053 C43.3050379,9.41341579 43.0561583,10.5243158 43.0561583,11.7772105 C43.0561583,13.7484316 43.6327292,15.3020211 44.785871,16.4379789 C45.9390129,17.5739368 47.5111019,18.1419158 49.5021381,18.1419158 Z M51.7420538,10.6997211 L46.1173765,10.6997211 C46.2335203,9.69740526 46.5446197,8.92896316 47.0506747,8.39439474 C47.5567298,7.85982632 48.2245565,7.59254211 49.0541549,7.59254211 C49.8837534,7.59254211 50.5308401,7.85565 50.9954153,8.38186579 C51.4599904,8.90808158 51.7088699,9.6807 51.7420538,10.6997211 L51.7420538,10.6997211 Z M60.0546301,17.9414526 L60.0546301,11.0004158 C60.0546301,10.0482158 60.3242496,9.28812632 60.8634885,8.72014737 C61.4027275,8.15216842 62.1203302,7.86817895 63.0162965,7.86817895 C63.779527,7.86817895 64.3395059,8.08534737 64.6962333,8.51968421 C65.0529606,8.95402105 65.2313243,9.64728947 65.2313243,10.5994895 L65.2313243,10.5994895 L65.2313243,17.9414526 L68.3423184,17.9414526 L68.3423184,10.4240842 C68.3423184,8.73685263 67.985591,7.47560526 67.2721364,6.64034211 C66.5586817,5.80507895 65.4719078,5.38744737 64.0118146,5.38744737 C63.1324402,5.38744737 62.3443217,5.57120526 61.6474591,5.93872105 C60.9505964,6.30623684 60.3947654,6.83245263 59.9799662,7.51736842 L59.9799662,7.51736842 L59.9799662,5.68814211 L56.943636,5.68814211 L56.943636,17.9414526 L60.0546301,17.9414526 Z M77.0531018,18.1419158 C77.9490681,18.1419158 78.8118505,18.0040974 79.6414489,17.7284605 C80.4710473,17.4528237 81.1513181,17.0727789 81.6822611,16.5883263 L81.6822611,16.5883263 L80.7862948,14.4082895 C80.2719437,14.8259211 79.7285568,15.1433211 79.1561338,15.3604895 C78.5837109,15.5776579 78.015436,15.6862421 77.4513091,15.6862421 C76.3728311,15.6862421 75.5349367,15.3479605 74.9376258,14.6713974 C74.340315,13.9948342 74.0416595,13.0301053 74.0416595,11.7772105 C74.0416595,10.5076105 74.340315,9.53452895 74.9376258,8.85796579 C75.5349367,8.18140263 76.3728311,7.84312105 77.4513091,7.84312105 C78.015436,7.84312105 78.5837109,7.95170526 79.1561338,8.16887368 C79.7285568,8.38604211 80.2719437,8.70344211 80.7862948,9.12107368 L80.7862948,9.12107368 L81.6822611,6.91597895 C81.184502,6.44823158 80.5249712,6.07653947 79.7036688,5.80090263 C78.8823664,5.52526579 78.040324,5.38744737 77.1775416,5.38744737 C75.916552,5.38744737 74.8048901,5.65473158 73.8425559,6.1893 C72.8802217,6.72386842 72.1377312,7.47978158 71.6150841,8.45703947 C71.0924371,9.43429737 70.8311136,10.5577263 70.8311136,11.8273263 C70.8311136,13.0969263 71.0799932,14.2078263 71.5777522,15.1600263 C72.0755113,16.1122263 72.7931139,16.8472579 73.7305601,17.3651211 C74.6680064,17.8829842 75.7755203,18.1419158 77.0531018,18.1419158 Z M89.4224144,18.1419158 C90.2851967,18.1419158 91.1438311,17.9999211 91.9983175,17.7159316 C92.8528039,17.4319421 93.5621105,17.0560737 94.1262374,16.5883263 L94.1262374,16.5883263 L93.2302711,14.4333474 C92.1186093,15.3020211 90.8908036,15.7363579 89.5468541,15.7363579 C88.4683762,15.7363579 87.6387778,15.4607211 87.0580589,14.9094474 C86.47734,14.3581737 86.1372046,13.5145579 86.0376528,12.3786 L86.0376528,12.3786 L94.3253411,12.3786 L94.3253411,11.5015737 C94.3253411,9.59717368 93.840026,8.10205263 92.8693958,7.01621053 C91.8987657,5.93036842 90.5755562,5.38744737 88.8997674,5.38744737 C87.7549215,5.38744737 86.7303675,5.65473158 85.8261052,6.1893 C84.9218429,6.72386842 84.2208322,7.47560526 83.7230732,8.44451053 C83.2253141,9.41341579 82.9764346,10.5243158 82.9764346,11.7772105 C82.9764346,13.7484316 83.5530055,15.3020211 84.7061473,16.4379789 C85.8592891,17.5739368 87.4313781,18.1419158 89.4224144,18.1419158 Z M91.6623301,10.6997211 L86.0376528,10.6997211 C86.1537966,9.69740526 86.464896,8.92896316 86.970951,8.39439474 C87.4770061,7.85982632 88.1448328,7.59254211 88.9744312,7.59254211 C89.8040296,7.59254211 90.4511164,7.85565 90.9156915,8.38186579 C91.3802667,8.90808158 91.6291462,9.6807 91.6623301,10.6997211 L91.6623301,10.6997211 Z M107.043085,17.9414526 L107.043085,10.2486789 L114.88279,10.2486789 L114.88279,7.66771579 L107.043085,7.66771579 L107.043085,2.8566 L115.380549,2.8566 L115.380549,0.275636842 L103.882315,0.275636842 L103.882315,17.9414526 L107.043085,17.9414526 Z M120.955451,3.08212105 L120.955451,0 L117.520913,0 L117.520913,3.08212105 L120.955451,3.08212105 Z M120.806123,17.9414526 L120.806123,5.68814211 L117.695129,5.68814211 L117.695129,17.9414526 L120.806123,17.9414526 Z M127.127663,17.9414526 L127.127663,11.0004158 C127.127663,10.0482158 127.397282,9.28812632 127.936521,8.72014737 C128.47576,8.15216842 129.193363,7.86817895 130.089329,7.86817895 C130.85256,7.86817895 131.412539,8.08534737 131.769266,8.51968421 C132.125993,8.95402105 132.304357,9.64728947 132.304357,10.5994895 L132.304357,10.5994895 L132.304357,17.9414526 L135.415351,17.9414526 L135.415351,10.4240842 C135.415351,8.73685263 135.058624,7.47560526 134.345169,6.64034211 C133.631715,5.80507895 132.544941,5.38744737 131.084847,5.38744737 C130.205473,5.38744737 129.417354,5.57120526 128.720492,5.93872105 C128.023629,6.30623684 127.467798,6.83245263 127.052999,7.51736842 L127.052999,7.51736842 L127.052999,5.68814211 L124.016669,5.68814211 L124.016669,17.9414526 L127.127663,17.9414526 Z M142.458642,18.1419158 C143.255056,18.1419158 143.956067,17.9581579 144.561674,17.5906421 C145.167281,17.2231263 145.611116,16.7136158 145.893179,16.0621105 L145.893179,16.0621105 L145.893179,17.9414526 L148.854846,17.9414526 L148.854846,10.4992579 C148.854846,8.76191053 148.440046,7.47560526 147.610448,6.64034211 C146.78085,5.80507895 145.511564,5.38744737 143.802591,5.38744737 C142.939809,5.38744737 142.027251,5.52944211 141.064916,5.81343158 C140.102582,6.09742105 139.28128,6.45658421 138.601009,6.89092105 L138.601009,6.89092105 L139.472087,9.0459 C140.152358,8.64497368 140.845073,8.33175 141.550231,8.10622895 C142.25539,7.88070789 142.931513,7.76794737 143.5786,7.76794737 C144.408198,7.76794737 145.001361,7.95170526 145.358088,8.31922105 C145.714816,8.68673684 145.893179,9.28812632 145.893179,10.1233895 L145.893179,10.1233895 L145.893179,10.6997211 L145.27098,10.6997211 C143.462456,10.6997211 142.043843,10.8166579 141.01514,11.0505316 C139.986438,11.2844053 139.243948,11.6602737 138.787669,12.1781368 C138.33139,12.696 138.10325,13.4059737 138.10325,14.3080579 C138.10325,15.0263842 138.294058,15.6778895 138.675673,16.2625737 C139.057288,16.8472579 139.579935,17.3066526 140.243614,17.6407579 C140.907293,17.9748632 141.645635,18.1419158 142.458642,18.1419158 Z M143.080841,15.8867053 C142.516714,15.8867053 142.052139,15.7154763 141.687115,15.3730184 C141.322092,15.0305605 141.13958,14.5920474 141.13958,14.0574789 C141.13958,13.6231421 141.272316,13.2806842 141.537788,13.0301053 C141.803259,12.7795263 142.242946,12.6041211 142.856849,12.5038895 C143.470752,12.4036579 144.333534,12.3535421 145.445196,12.3535421 L145.445196,12.3535421 L145.893179,12.3535421 L145.893179,12.8797579 C145.893179,13.7651368 145.631856,14.4876395 145.109209,15.0472658 C144.586562,15.6068921 143.910439,15.8867053 143.080841,15.8867053 Z M155.12661,17.9414526 L155.12661,11.0004158 C155.12661,10.0482158 155.396229,9.28812632 155.935468,8.72014737 C156.474707,8.15216842 157.19231,7.86817895 158.088276,7.86817895 C158.851507,7.86817895 159.411486,8.08534737 159.768213,8.51968421 C160.12494,8.95402105 160.303304,9.64728947 160.303304,10.5994895 L160.303304,10.5994895 L160.303304,17.9414526 L163.414298,17.9414526 L163.414298,10.4240842 C163.414298,8.73685263 163.057571,7.47560526 162.344116,6.64034211 C161.630661,5.80507895 160.543887,5.38744737 159.083794,5.38744737 C158.20442,5.38744737 157.416301,5.57120526 156.719439,5.93872105 C156.022576,6.30623684 155.466745,6.83245263 155.051946,7.51736842 L155.051946,7.51736842 L155.051946,5.68814211 L152.015616,5.68814211 L152.015616,17.9414526 L155.12661,17.9414526 Z M172.125081,18.1419158 C173.021048,18.1419158 173.88383,18.0040974 174.713429,17.7284605 C175.543027,17.4528237 176.223298,17.0727789 176.754241,16.5883263 L176.754241,16.5883263 L175.858274,14.4082895 C175.343923,14.8259211 174.800536,15.1433211 174.228113,15.3604895 C173.655691,15.5776579 173.087416,15.6862421 172.523289,15.6862421 C171.444811,15.6862421 170.606916,15.3479605 170.009605,14.6713974 C169.412295,13.9948342 169.113639,13.0301053 169.113639,11.7772105 C169.113639,10.5076105 169.412295,9.53452895 170.009605,8.85796579 C170.606916,8.18140263 171.444811,7.84312105 172.523289,7.84312105 C173.087416,7.84312105 173.655691,7.95170526 174.228113,8.16887368 C174.800536,8.38604211 175.343923,8.70344211 175.858274,9.12107368 L175.858274,9.12107368 L176.754241,6.91597895 C176.256482,6.44823158 175.596951,6.07653947 174.775648,5.80090263 C173.954346,5.52526579 173.112304,5.38744737 172.249521,5.38744737 C170.988532,5.38744737 169.87687,5.65473158 168.914536,6.1893 C167.952201,6.72386842 167.209711,7.47978158 166.687064,8.45703947 C166.164417,9.43429737 165.903093,10.5577263 165.903093,11.8273263 C165.903093,13.0969263 166.151973,14.2078263 166.649732,15.1600263 C167.147491,16.1122263 167.865094,16.8472579 168.80254,17.3651211 C169.739986,17.8829842 170.8475,18.1419158 172.125081,18.1419158 Z M184.494394,18.1419158 C185.357176,18.1419158 186.215811,17.9999211 187.070297,17.7159316 C187.924784,17.4319421 188.63409,17.0560737 189.198217,16.5883263 L189.198217,16.5883263 L188.302251,14.4333474 C187.190589,15.3020211 185.962783,15.7363579 184.618834,15.7363579 C183.540356,15.7363579 182.710757,15.4607211 182.130039,14.9094474 C181.54932,14.3581737 181.209184,13.5145579 181.109632,12.3786 L181.109632,12.3786 L189.397321,12.3786 L189.397321,11.5015737 C189.397321,9.59717368 188.912006,8.10205263 187.941375,7.01621053 C186.970745,5.93036842 185.647536,5.38744737 183.971747,5.38744737 C182.826901,5.38744737 181.802347,5.65473158 180.898085,6.1893 C179.993823,6.72386842 179.292812,7.47560526 178.795053,8.44451053 C178.297294,9.41341579 178.048414,10.5243158 178.048414,11.7772105 C178.048414,13.7484316 178.624985,15.3020211 179.778127,16.4379789 C180.931269,17.5739368 182.503358,18.1419158 184.494394,18.1419158 Z M186.73431,10.6997211 L181.109632,10.6997211 C181.225776,9.69740526 181.536876,8.92896316 182.042931,8.39439474 C182.548986,7.85982632 183.216812,7.59254211 184.046411,7.59254211 C184.876009,7.59254211 185.523096,7.85565 185.987671,8.38186579 C186.452246,8.90808158 186.701126,9.6807 186.73431,10.6997211 L186.73431,10.6997211 Z" id="FlorenceFinance"></path>
            </g>
        </g>
    </g>
</svg>