<svg width="40px" height="40px" viewBox="0 0 40 40" version="1.1" xmlns="http://www.w3.org/2000/svg" xmlns:xlink="http://www.w3.org/1999/xlink">
            <g id="Onepager" stroke="none" stroke-width="1" fill="none" fill-rule="evenodd">
                <g id="z" transform="translate(-557.000000, -460.000000)">
                    <g id="Group-14-Copy" transform="translate(557.000000, 460.000000)">
                        <circle id="Oval" fill="#FFFFFF" cx="20" cy="20" r="20"></circle>
                        <g id="icn-ledger" transform="translate(9.000000, 9.000000)" fill="#000000" fill-rule="nonzero">
                            <path d="M18.5219119,0 L8.37066441,0 L8.37066441,13.5792415 L21.9944959,13.5792415 L21.9944959,3.53304654 C22,1.62553308 20.4356881,0 18.5219119,0 Z M5.25315254,0 L3.55017356,0 C1.6364122,0 0,1.55365354 0,3.53856945 L0,5.23598207 L5.25315254,5.23598207 L5.25315254,0 Z M0,8.41513896 L5.25315254,8.41513896 L5.25315254,13.651121 L0,13.651121 L0,8.41513896 Z M16.7468475,21.9944251 L18.4497966,21.9944251 C20.3635729,21.9944251 22,20.4408013 22,18.4559002 L22,16.7640179 L16.7468475,16.7640179 L16.7468475,21.9944251 Z M8.37066441,16.7640179 L13.6238169,16.7640179 L13.6238169,22 L8.37066441,22 L8.37066441,16.7640179 Z M0,16.7640179 L0,18.4614008 C0,20.3689217 1.55874847,22 3.55017356,22 L5.25315254,22 L5.25315254,16.7640179 L0,16.7640179 Z" id="Shape"></path>
                        </g>
                    </g>
                </g>
            </g>
</svg>     