<svg width="30px" height="19px" viewBox="0 0 30 19" version="1.1" xmlns="http://www.w3.org/2000/svg" xmlns:xlink="http://www.w3.org/1999/xlink">
    <g id="Onepager" stroke="none" stroke-width="1" fill="none" fill-rule="evenodd">
        <g id="z" transform="translate(-562.000000, -542.000000)">
            <g id="Group-14-Copy-2" transform="translate(562.000000, 542.000000)">
                <circle id="Oval" fill="#FFFFFF" cx="16" cy="11" r="2"></circle>
                <g id="icn-wallet-connect" fill="#3B99FC" fill-rule="nonzero">
                    <path d="M6.14162239,3.71226822 C11.0339774,-1.23742274 18.9660523,-1.23742274 23.8584071,3.71226822 L24.44721,4.30797144 C24.6918277,4.55545596 24.6918277,4.95670771 24.44721,5.20419235 L22.433033,7.24197443 C22.3107241,7.3657168 22.1124222,7.3657168 21.9901133,7.24197443 L21.1798507,6.42221594 C17.7668216,2.96918782 12.233208,2.96918782 8.82017879,6.42221594 L7.95245454,7.30010965 C7.83014557,7.42385192 7.63184366,7.42385192 7.50953489,7.30010965 L5.49535792,5.26232757 C5.25074016,5.01484293 5.25074016,4.61359119 5.49535792,4.36610665 L6.14162239,3.71226822 Z M28.0239153,7.92661702 L29.8165367,9.74025333 C30.0611532,9.9877367 30.0611546,10.3889861 29.8165398,10.6364711 L21.7334861,18.8143821 C21.4888701,19.0618685 21.0922664,19.0618712 20.8476469,18.8143885 C20.8476459,18.8143875 20.8476447,18.8143862 20.8476437,18.8143852 L15.110784,13.0102837 C15.0496296,12.9484126 14.9504786,12.9484126 14.8893242,13.0102837 C14.8893238,13.0102841 14.8893235,13.0102845 14.8893231,13.0102848 L9.1525856,18.8143821 C8.90797029,19.0618691 8.51136649,19.0618732 8.26674629,18.8143911 C8.26674486,18.8143896 8.26674333,18.8143882 8.2667418,18.8143865 L0.18346324,10.6363669 C-0.0611544133,10.3888824 -0.0611544133,9.9876306 0.18346324,9.74014606 L1.97608786,7.92651282 C2.22070551,7.67902829 2.61730931,7.67902829 2.86192707,7.92651282 L8.59887027,13.7306954 C8.66002476,13.7925666 8.75917556,13.7925666 8.82033005,13.7306954 C8.82033097,13.7306945 8.82033179,13.7306937 8.8203327,13.730693 L14.5569884,7.92651282 C14.8016005,7.67902259 15.1982043,7.67901331 15.4428277,7.92649215 C15.4428311,7.92649562 15.4428345,7.92649911 15.4428378,7.92650259 L21.1797734,13.730693 C21.2409278,13.792564 21.3400788,13.792564 21.4012332,13.730693 L27.1380761,7.92661702 C27.3826939,7.67913238 27.7792976,7.67913238 28.0239153,7.92661702 Z" id="WalletConnect"></path>
                </g>
            </g>
        </g>
    </g>
</svg>